{
	"patcher" : 	{
		"fileversion" : 1,
		"appversion" : 		{
			"major" : 8,
			"minor" : 0,
			"revision" : 8,
			"architecture" : "x64",
			"modernui" : 1
		}
,
		"classnamespace" : "box",
		"rect" : [ 59.0, 104.0, 264.0, 709.0 ],
		"bglocked" : 0,
		"openinpresentation" : 0,
		"default_fontsize" : 12.0,
		"default_fontface" : 0,
		"default_fontname" : "Arial",
		"gridonopen" : 1,
		"gridsize" : [ 15.0, 15.0 ],
		"gridsnaponopen" : 1,
		"objectsnaponopen" : 1,
		"statusbarvisible" : 2,
		"toolbarvisible" : 1,
		"lefttoolbarpinned" : 0,
		"toptoolbarpinned" : 0,
		"righttoolbarpinned" : 0,
		"bottomtoolbarpinned" : 0,
		"toolbars_unpinned_last_save" : 0,
		"tallnewobj" : 0,
		"boxanimatetime" : 200,
		"enablehscroll" : 1,
		"enablevscroll" : 1,
		"devicewidth" : 0.0,
		"description" : "",
		"digest" : "",
		"tags" : "",
		"style" : "",
		"subpatcher_template" : "",
		"boxes" : [ 			{
				"box" : 				{
					"id" : "obj-77",
					"maxclass" : "newobj",
					"numinlets" : 1,
					"numoutlets" : 1,
					"outlettype" : [ "bang" ],
					"patcher" : 					{
						"fileversion" : 1,
						"appversion" : 						{
							"major" : 8,
							"minor" : 0,
							"revision" : 8,
							"architecture" : "x64",
							"modernui" : 1
						}
,
						"classnamespace" : "box",
						"rect" : [ 59.0, 104.0, 640.0, 480.0 ],
						"bglocked" : 0,
						"openinpresentation" : 0,
						"default_fontsize" : 12.0,
						"default_fontface" : 0,
						"default_fontname" : "Arial",
						"gridonopen" : 1,
						"gridsize" : [ 15.0, 15.0 ],
						"gridsnaponopen" : 1,
						"objectsnaponopen" : 1,
						"statusbarvisible" : 2,
						"toolbarvisible" : 1,
						"lefttoolbarpinned" : 0,
						"toptoolbarpinned" : 0,
						"righttoolbarpinned" : 0,
						"bottomtoolbarpinned" : 0,
						"toolbars_unpinned_last_save" : 0,
						"tallnewobj" : 0,
						"boxanimatetime" : 200,
						"enablehscroll" : 1,
						"enablevscroll" : 1,
						"devicewidth" : 0.0,
						"description" : "",
						"digest" : "",
						"tags" : "",
						"style" : "",
						"subpatcher_template" : "",
						"boxes" : [ 							{
								"box" : 								{
									"id" : "obj-32",
									"maxclass" : "newobj",
									"numinlets" : 2,
									"numoutlets" : 1,
									"outlettype" : [ "" ],
									"patching_rect" : [ 50.0, 214.666716999999949, 32.0, 22.0 ],
									"text" : "gate"
								}

							}
, 							{
								"box" : 								{
									"id" : "obj-124",
									"maxclass" : "newobj",
									"numinlets" : 1,
									"numoutlets" : 2,
									"outlettype" : [ "bang", "bang" ],
									"patching_rect" : [ 50.0, 259.666686999999968, 33.0, 22.0 ],
									"text" : "t b b"
								}

							}
, 							{
								"box" : 								{
									"id" : "obj-59",
									"maxclass" : "newobj",
									"numinlets" : 2,
									"numoutlets" : 2,
									"outlettype" : [ "int", "int" ],
									"patching_rect" : [ 61.499999999999986, 181.00006099999996, 83.0, 22.0 ],
									"text" : "stripnote"
								}

							}
, 							{
								"box" : 								{
									"id" : "obj-60",
									"maxclass" : "newobj",
									"numinlets" : 1,
									"numoutlets" : 1,
									"outlettype" : [ "int" ],
									"patching_rect" : [ 61.499999999999986, 100.0, 40.0, 22.0 ],
									"text" : "midiin"
								}

							}
, 							{
								"box" : 								{
									"id" : "obj-62",
									"maxclass" : "newobj",
									"numinlets" : 1,
									"numoutlets" : 2,
									"outlettype" : [ "int", "int" ],
									"patching_rect" : [ 61.499999999999986, 151.666747999999984, 83.0, 22.0 ],
									"text" : "unpack"
								}

							}
, 							{
								"box" : 								{
									"id" : "obj-63",
									"maxclass" : "newobj",
									"numinlets" : 1,
									"numoutlets" : 8,
									"outlettype" : [ "", "", "", "int", "int", "", "int", "" ],
									"patching_rect" : [ 61.499999999999986, 122.0, 92.5, 22.0 ],
									"text" : "midiparse"
								}

							}
, 							{
								"box" : 								{
									"comment" : "",
									"id" : "obj-75",
									"index" : 1,
									"maxclass" : "inlet",
									"numinlets" : 0,
									"numoutlets" : 1,
									"outlettype" : [ "int" ],
									"patching_rect" : [ 50.0, 39.999999999999972, 30.0, 30.0 ]
								}

							}
, 							{
								"box" : 								{
									"comment" : "",
									"id" : "obj-76",
									"index" : 1,
									"maxclass" : "outlet",
									"numinlets" : 1,
									"numoutlets" : 0,
									"patching_rect" : [ 44.0, 341.666686999999968, 30.0, 30.0 ]
								}

							}
 ],
						"lines" : [ 							{
								"patchline" : 								{
									"destination" : [ "obj-76", 0 ],
									"source" : [ "obj-124", 1 ]
								}

							}
, 							{
								"patchline" : 								{
									"destination" : [ "obj-76", 0 ],
									"source" : [ "obj-124", 0 ]
								}

							}
, 							{
								"patchline" : 								{
									"destination" : [ "obj-124", 0 ],
									"midpoints" : [ 59.5, 237.00006099999996, 59.5, 237.00006099999996 ],
									"source" : [ "obj-32", 0 ]
								}

							}
, 							{
								"patchline" : 								{
									"destination" : [ "obj-32", 1 ],
									"source" : [ "obj-59", 0 ]
								}

							}
, 							{
								"patchline" : 								{
									"destination" : [ "obj-63", 0 ],
									"midpoints" : [ 70.999999999999986, 123.00006099999996, 70.999999999999986, 123.00006099999996 ],
									"source" : [ "obj-60", 0 ]
								}

							}
, 							{
								"patchline" : 								{
									"destination" : [ "obj-59", 1 ],
									"midpoints" : [ 135.0, 174.00006099999996, 135.0, 174.00006099999996 ],
									"source" : [ "obj-62", 1 ]
								}

							}
, 							{
								"patchline" : 								{
									"destination" : [ "obj-59", 0 ],
									"midpoints" : [ 70.999999999999986, 174.00006099999996, 70.999999999999986, 174.00006099999996 ],
									"source" : [ "obj-62", 0 ]
								}

							}
, 							{
								"patchline" : 								{
									"destination" : [ "obj-62", 0 ],
									"midpoints" : [ 70.999999999999986, 144.00006099999996, 70.999999999999986, 144.00006099999996 ],
									"source" : [ "obj-63", 0 ]
								}

							}
, 							{
								"patchline" : 								{
									"destination" : [ "obj-32", 0 ],
									"source" : [ "obj-75", 0 ]
								}

							}
 ]
					}
,
					"patching_rect" : [ 115.666664000000083, 395.23323600000009, 74.0, 22.0 ],
					"saved_object_attributes" : 					{
						"description" : "",
						"digest" : "",
						"globalpatchername" : "",
						"tags" : ""
					}
,
					"text" : "p gateRetrig"
				}

			}
, 			{
				"box" : 				{
					"id" : "obj-46",
					"maxclass" : "newobj",
					"numinlets" : 1,
					"numoutlets" : 1,
					"outlettype" : [ "" ],
					"patching_rect" : [ 30.666649000000007, 501.899923000000001, 72.0, 22.0 ],
					"text" : "prepend set"
				}

			}
, 			{
				"box" : 				{
					"id" : "obj-56",
					"maxclass" : "newobj",
					"numinlets" : 2,
					"numoutlets" : 1,
					"outlettype" : [ "int" ],
					"patching_rect" : [ 16.266650999999911, 444.499960000000044, 29.5, 22.0 ],
					"text" : "/ 2"
				}

			}
, 			{
				"box" : 				{
					"id" : "obj-55",
					"maxclass" : "message",
					"numinlets" : 2,
					"numoutlets" : 1,
					"outlettype" : [ "" ],
					"patching_rect" : [ 8.666651000000002, 475.566610000000026, 112.0, 22.0 ],
					"text" : "600, 200 $1 600 $1"
				}

			}
, 			{
				"box" : 				{
					"fontsize" : 13.0,
					"id" : "obj-57",
					"maxclass" : "comment",
					"numinlets" : 1,
					"numoutlets" : 0,
					"patching_rect" : [ 129.666664000000083, 61.066656000000052, 56.0, 21.0 ],
					"text" : "On/off"
				}

			}
, 			{
				"box" : 				{
					"fontsize" : 13.0,
					"id" : "obj-54",
					"maxclass" : "comment",
					"numinlets" : 1,
					"numoutlets" : 0,
					"patching_rect" : [ 129.666664000000083, 106.900015000000053, 46.0, 21.0 ],
					"text" : "Time"
				}

			}
, 			{
				"box" : 				{
					"id" : "obj-52",
					"maxclass" : "toggle",
					"numinlets" : 1,
					"numoutlets" : 1,
					"outlettype" : [ "int" ],
					"parameter_enable" : 0,
					"patching_rect" : [ 13.166664000000083, 75.400015000000053, 39.5, 39.5 ]
				}

			}
, 			{
				"box" : 				{
					"fontsize" : 16.0,
					"id" : "obj-42",
					"maxclass" : "comment",
					"numinlets" : 1,
					"numoutlets" : 0,
					"patching_rect" : [ 0.0, 0.0, 200.0, 24.0 ],
					"text" : "Low Pass Filter LFO test"
				}

			}
, 			{
				"box" : 				{
					"fontsize" : 12.0,
					"id" : "obj-40",
					"maxclass" : "comment",
					"numinlets" : 1,
					"numoutlets" : 0,
					"patching_rect" : [ 13.166664000000083, 48.066656000000052, 46.0, 20.0 ],
					"text" : "Retrig"
				}

			}
, 			{
				"box" : 				{
					"id" : "obj-26",
					"maxclass" : "live.numbox",
					"numinlets" : 1,
					"numoutlets" : 2,
					"outlettype" : [ "", "float" ],
					"parameter_enable" : 1,
					"patching_rect" : [ 82.416664000000083, 109.900015000000053, 44.0, 15.0 ],
					"saved_attribute_attributes" : 					{
						"valueof" : 						{
							"parameter_mmax" : 5000.0,
							"parameter_initial" : [ 250 ],
							"parameter_shortname" : "live.numbox",
							"parameter_type" : 0,
							"parameter_unitstyle" : 0,
							"parameter_longname" : "live.numbox[4]"
						}

					}
,
					"varname" : "live.numbox[4]"
				}

			}
, 			{
				"box" : 				{
					"id" : "obj-21",
					"maxclass" : "toggle",
					"numinlets" : 1,
					"numoutlets" : 1,
					"outlettype" : [ "int" ],
					"parameter_enable" : 0,
					"patching_rect" : [ 82.416664000000083, 51.816656000000052, 39.5, 39.5 ]
				}

			}
, 			{
				"box" : 				{
					"id" : "obj-135",
					"linecount" : 3,
					"maxclass" : "comment",
					"numinlets" : 1,
					"numoutlets" : 0,
					"patching_rect" : [ 8.666651000000002, 547.566549000000123, 97.0, 47.0 ],
					"text" : "An LFO that controls a low pass filter"
				}

			}
, 			{
				"box" : 				{
					"id" : "obj-119",
					"maxclass" : "newobj",
					"numinlets" : 2,
					"numoutlets" : 2,
					"outlettype" : [ "signal", "bang" ],
					"patching_rect" : [ 115.666664000000083, 562.899861999999985, 34.0, 22.0 ],
					"text" : "line~"
				}

			}
, 			{
				"box" : 				{
					"id" : "obj-116",
					"maxclass" : "toggle",
					"numinlets" : 1,
					"numoutlets" : 1,
					"outlettype" : [ "int" ],
					"parameter_enable" : 0,
					"patching_rect" : [ 115.666664000000083, 450.966604000000018, 24.0, 24.0 ]
				}

			}
, 			{
				"box" : 				{
					"id" : "obj-114",
					"maxclass" : "newobj",
					"numinlets" : 2,
					"numoutlets" : 1,
					"outlettype" : [ "bang" ],
					"patching_rect" : [ 115.666664000000083, 489.633291000000042, 63.0, 22.0 ],
					"text" : "metro 250"
				}

			}
, 			{
				"box" : 				{
					"id" : "obj-113",
					"maxclass" : "message",
					"numinlets" : 2,
					"numoutlets" : 1,
					"outlettype" : [ "" ],
					"patching_rect" : [ 115.666664000000083, 525.566549000000123, 99.0, 22.0 ],
					"text" : "200 125 600 125"
				}

			}
, 			{
				"box" : 				{
					"id" : "obj-111",
					"maxclass" : "newobj",
					"numinlets" : 3,
					"numoutlets" : 1,
					"outlettype" : [ "signal" ],
					"patching_rect" : [ 80.0, 653.899922999999944, 92.0, 22.0 ],
					"text" : "lores~ 600 0.95"
				}

			}
, 			{
				"box" : 				{
					"id" : "obj-14",
					"maxclass" : "newobj",
					"numinlets" : 3,
					"numoutlets" : 1,
					"outlettype" : [ "signal" ],
					"patching_rect" : [ 80.0, 620.566549000000123, 40.0, 22.0 ],
					"text" : "rect~"
				}

			}
 ],
		"lines" : [ 			{
				"patchline" : 				{
					"destination" : [ "obj-119", 0 ],
					"midpoints" : [ 125.166664000000083, 549.233297000000221, 125.166664000000083, 549.233297000000221 ],
					"source" : [ "obj-113", 0 ]
				}

			}
, 			{
				"patchline" : 				{
					"destination" : [ "obj-113", 0 ],
					"midpoints" : [ 125.166664000000083, 513.233297000000221, 125.166664000000083, 513.233297000000221 ],
					"source" : [ "obj-114", 0 ]
				}

			}
, 			{
				"patchline" : 				{
					"destination" : [ "obj-114", 0 ],
					"midpoints" : [ 125.166664000000083, 477.233297000000164, 125.166664000000083, 477.233297000000164 ],
					"source" : [ "obj-116", 0 ]
				}

			}
, 			{
				"patchline" : 				{
					"destination" : [ "obj-111", 1 ],
					"midpoints" : [ 125.166664000000083, 606.233297000000221, 131.666649000000007, 606.233297000000221, 131.666649000000007, 645.233297000000221, 126.0, 645.233297000000221 ],
					"source" : [ "obj-119", 0 ]
				}

			}
, 			{
				"patchline" : 				{
					"destination" : [ "obj-111", 0 ],
					"midpoints" : [ 89.5, 643.233297000000221, 89.5, 643.233297000000221 ],
					"source" : [ "obj-14", 0 ]
				}

			}
, 			{
				"patchline" : 				{
					"destination" : [ "obj-116", 0 ],
					"midpoints" : [ 91.916664000000083, 93.233296999999993, 68.666649000000007, 93.233296999999993, 68.666649000000007, 435.233297000000164, 125.166664000000083, 435.233297000000164 ],
					"source" : [ "obj-21", 0 ]
				}

			}
, 			{
				"patchline" : 				{
					"destination" : [ "obj-114", 1 ],
					"midpoints" : [ 91.916664000000083, 435.233297000000164, 169.166664000000083, 435.233297000000164 ],
					"order" : 0,
					"source" : [ "obj-26", 0 ]
				}

			}
, 			{
				"patchline" : 				{
					"destination" : [ "obj-56", 0 ],
					"midpoints" : [ 91.916664000000083, 429.233297000000164, 25.766650999999911, 429.233297000000164 ],
					"order" : 1,
					"source" : [ "obj-26", 0 ]
				}

			}
, 			{
				"patchline" : 				{
					"destination" : [ "obj-113", 0 ],
					"midpoints" : [ 40.166649000000007, 534.233297000000221, 110.666649000000007, 534.233297000000221, 110.666649000000007, 522.233297000000221, 125.166664000000083, 522.233297000000221 ],
					"source" : [ "obj-46", 0 ]
				}

			}
, 			{
				"patchline" : 				{
					"destination" : [ "obj-77", 0 ],
					"midpoints" : [ 22.666664000000083, 381.23329700000005, 125.166664000000083, 381.23329700000005 ],
					"source" : [ "obj-52", 0 ]
				}

			}
, 			{
				"patchline" : 				{
					"destination" : [ "obj-46", 0 ],
					"midpoints" : [ 18.166651000000002, 498.233297000000164, 40.166649000000007, 498.233297000000164 ],
					"source" : [ "obj-55", 0 ]
				}

			}
, 			{
				"patchline" : 				{
					"destination" : [ "obj-55", 0 ],
					"midpoints" : [ 25.766650999999911, 468.233297000000164, 18.166651000000002, 468.233297000000164 ],
					"source" : [ "obj-56", 0 ]
				}

			}
, 			{
				"patchline" : 				{
					"destination" : [ "obj-116", 0 ],
					"midpoints" : [ 125.166664000000083, 417.233297000000164, 125.166664000000083, 417.233297000000164 ],
					"source" : [ "obj-77", 0 ]
				}

			}
 ],
		"parameters" : 		{
			"obj-26" : [ "live.numbox[4]", "live.numbox", 0 ],
			"parameterbanks" : 			{

			}

		}
,
		"dependency_cache" : [  ],
		"autosave" : 0
	}

}
